<?xml version="1.0" encoding="UTF-8"?>
<svg width="13px" height="13px" viewBox="0 0 13 13" version="1.1" xmlns="http://www.w3.org/2000/svg" xmlns:xlink="http://www.w3.org/1999/xlink">
    <!-- Generator: sketchtool 53.2 (72643) - https://sketchapp.com -->
    <title>1A3951C9-70CA-42FD-9726-17B0A92BF057</title>
    <desc>Created with sketchtool.</desc>
    <defs>
        <path d="M6.5,9.75 C4.70507456,9.75 3.25,8.29492544 3.25,6.5 C3.25,4.70507456 4.70507456,3.25 6.5,3.25 C8.29492544,3.25 9.75,4.70507456 9.75,6.5 C9.75,8.29492544 8.29492544,9.75 6.5,9.75 Z M6.5,8.66666667 C7.69661696,8.66666667 8.66666667,7.69661696 8.66666667,6.5 C8.66666667,5.30338304 7.69661696,4.33333333 6.5,4.33333333 C5.30338304,4.33333333 4.33333333,5.30338304 4.33333333,6.5 C4.33333333,7.69661696 5.30338304,8.66666667 6.5,8.66666667 Z M5.95833333,0.541666667 C5.95833333,0.242512427 6.20084576,0 6.5,0 C6.79915424,0 7.04166667,0.242512427 7.04166667,0.541666667 L7.04166667,1.625 C7.04166667,1.92415424 6.79915424,2.16666667 6.5,2.16666667 C6.20084576,2.16666667 5.95833333,1.92415424 5.95833333,1.625 L5.95833333,0.541666667 Z M5.95833333,11.375 C5.95833333,11.0758458 6.20084576,10.8333333 6.5,10.8333333 C6.79915424,10.8333333 7.04166667,11.0758458 7.04166667,11.375 L7.04166667,12.4583333 C7.04166667,12.7574876 6.79915424,13 6.5,13 C6.20084576,13 5.95833333,12.7574876 5.95833333,12.4583333 L5.95833333,11.375 Z M1.90281716,2.66884951 C1.69128317,2.45731552 1.69128317,2.11435115 1.90281716,1.90281716 C2.11435115,1.69128317 2.45731552,1.69128317 2.66884951,1.90281716 L3.43801617,2.67198383 C3.64955016,2.88351782 3.64955016,3.22648218 3.43801617,3.43801617 C3.22648218,3.64955016 2.88351782,3.64955016 2.67198383,3.43801617 L1.90281716,2.66884951 Z M9.56198383,10.3280162 C9.35044984,10.1164822 9.35044984,9.77351782 9.56198383,9.56198383 C9.77351782,9.35044984 10.1164822,9.35044984 10.3280162,9.56198383 L11.0971828,10.3311505 C11.3087168,10.5426845 11.3087168,10.8856488 11.0971828,11.0971828 C10.8856488,11.3087168 10.5426845,11.3087168 10.3311505,11.0971828 L9.56198383,10.3280162 Z M0.541666667,7.04166667 C0.242512427,7.04166667 0,6.79915424 0,6.5 C0,6.20084576 0.242512427,5.95833333 0.541666667,5.95833333 L1.625,5.95833333 C1.92415424,5.95833333 2.16666667,6.20084576 2.16666667,6.5 C2.16666667,6.79915424 1.92415424,7.04166667 1.625,7.04166667 L0.541666667,7.04166667 Z M11.375,7.04166667 C11.0758458,7.04166667 10.8333333,6.79915424 10.8333333,6.5 C10.8333333,6.20084576 11.0758458,5.95833333 11.375,5.95833333 L12.4583333,5.95833333 C12.7574876,5.95833333 13,6.20084576 13,6.5 C13,6.79915424 12.7574876,7.04166667 12.4583333,7.04166667 L11.375,7.04166667 Z M2.66884951,11.0971828 C2.45731552,11.3087168 2.11435115,11.3087168 1.90281716,11.0971828 C1.69128317,10.8856488 1.69128317,10.5426845 1.90281716,10.3311505 L2.67198383,9.56198383 C2.88351782,9.35044984 3.22648218,9.35044984 3.43801617,9.56198383 C3.64955016,9.77351782 3.64955016,10.1164822 3.43801617,10.3280162 L2.66884951,11.0971828 Z M10.3280162,3.43801617 C10.1164822,3.64955016 9.77351782,3.64955016 9.56198383,3.43801617 C9.35044984,3.22648218 9.35044984,2.88351782 9.56198383,2.67198383 L10.3311505,1.90281716 C10.5426845,1.69128317 10.8856488,1.69128317 11.0971828,1.90281716 C11.3087168,2.11435115 11.3087168,2.45731552 11.0971828,2.66884951 L10.3280162,3.43801617 Z" id="path-1"></path>
    </defs>
    <g id="Material-Design-Stickersheet" stroke="none" stroke-width="1" fill="none" fill-rule="evenodd">
        <g id="用戶分群-閱讀時段-版本1" transform="translate(-747.000000, -899.000000)">
            <g id="Group-12" transform="translate(747.000000, 876.000000)">
                <g id="Group-9" transform="translate(0.000000, 3.000000)">
                    <g id="sun" transform="translate(0.000000, 20.000000)">
                        <mask id="mask-2" fill="white">
                            <use xlink:href="#path-1"></use>
                        </mask>
                        <use id="Combined-Shape" fill="#000000" fill-rule="nonzero" xlink:href="#path-1"></use>
                        <g id="COLOR/-gray" mask="url(#mask-2)" fill="#A8A8A8" fill-rule="evenodd">
                            <rect id="Rectangle" x="0" y="0" width="13" height="13"></rect>
                        </g>
                    </g>
                </g>
            </g>
        </g>
    </g>
</svg>